<svg height="511pt" viewBox="0 0 511.99964 511" width="511pt" xmlns="http://www.w3.org/2000/svg"><path d="m512 512.484375h-453.859375c-23.902344 0-44.433594-13.71875-53.578125-35.800781-9.148438-22.082032-4.332031-46.296875 12.570312-63.199219l58.550782-58.550781 21.214844 21.210937-58.554688 58.554688c-8.277344 8.28125-10.546875 19.683593-6.066406 30.503906 4.480468 10.820313 14.148437 17.28125 25.863281 17.28125h453.859375zm0 0" fill="#04303e"/><path d="m266.652344 163.003906 44.351562 22.175782 59.015625-59.019532-22.175781-46.675781zm0 0" fill="#87a0af"/><path d="m325.667969 81.808594-59.015625 59.019531 4.085937 40.261719 89.75-89.75zm0 0" fill="#b4d2d7"/><path d="m415.933594 134.160156 21.214844-21.210937 33.261718 33.261719-21.210937 21.214843zm0 0" fill="#04303e"/><path d="m436.550781 74.417969-29.570312-29.570313-54.011719 8.171875-5.125 50.964844 29.570312 29.570313c16.328126 16.328124 42.804688 16.328124 59.136719 0 16.328125-16.332032 16.328125-42.808594 0-59.136719zm0 0" fill="#b4d2d7"/><path d="m303.492188 59.636719 59.132812-59.136719 44.355469 44.351562-59.136719 59.136719zm0 0" fill="#e1ebf0"/><path d="m56.40625 395.425781c24.496094 24.492188 64.207031 24.492188 88.703125 0l188.070313-188.070312-44.351563-44.351563-107.195313 68.039063zm0 0" fill="#b4d2d7"/><path d="m56.40625 306.722656c-24.496094 24.492188-24.496094 64.207032 0 88.703125l232.421875-232.421875-44.351563-44.351562zm0 0" fill="#e1ebf0"/><g fill="#09607d"><path d="m195.269531 234.386719 21.214844-21.210938 22.175781 22.175781-21.214844 21.210938zm0 0"/><path d="m150.921875 278.730469 21.210937-21.214844 22.175782 22.175781-21.210938 21.214844zm0 0"/></g></svg>