<svg height="512pt" viewBox="0 -47 512 511" width="512pt" xmlns="http://www.w3.org/2000/svg"><path d="m512 .5h-256l-20.015625 208.160156 20.015625 208.160156h256zm0 0" fill="#04303e"/><path d="m0 .5h256v416.320312h-256zm0 0" fill="#09607d"/><path d="m165.058594 131.445312h-42.222656c-32.613282 0-59.050782 26.4375-59.050782 59.050782 0 22.898437 13.035156 42.753906 32.089844 52.550781l13.796875 77.878906c2.945313 16.621094 17.394531 28.734375 34.273437 28.734375 16.882813 0 31.328126-12.113281 34.273438-28.734375l13.796875-77.878906c19.054687-9.796875 32.089844-29.652344 32.089844-52.550781 0-32.613282-26.433594-59.050782-59.046875-59.050782zm0 0" fill="#fff5f5"/><g fill="#00cc76"><path d="m287.894531 161.769531h176.265625v30h-176.265625zm0 0"/><path d="m287.894531 225.554688h176.265625v30h-176.265625zm0 0"/><path d="m287.894531 289.339844h176.265625v30h-176.265625zm0 0"/></g><path d="m47.839844 49.285156h31.890625v30h-31.890625zm0 0" fill="#00ff94"/><path d="m111.625 49.285156h31.894531v30h-31.894531zm0 0" fill="#00ff94"/><path d="m368.480469 49.285156h95.679687v30h-95.679687zm0 0" fill="#00cc76"/></svg>