<svg height="511pt" viewBox="-31 0 511 511.99973" width="511pt" xmlns="http://www.w3.org/2000/svg"><path d="m310.050781.0273438c-32.578125.6328122-62.34375 12.7304682-85.445312 32.4179682l-20.015625 130.554688 20.015625 179.441406c17.929687 0 32.769531 13.9375 33.890625 31.832032l6.621094 105.890624c1.121093 17.894532 15.960937 31.835938 33.886718 31.835938h5.269532c16.46875 0 30.558593-11.8125 33.433593-28.027344l40.566407-228.851562c42.476562-23.410156 71.101562-68.867188 70.429687-120.953125-.980469-75.773438-62.886719-135.617188-138.652344-134.1406252zm0 0" fill="#e1ebf0"/><path d="m139.164062.0273438c-75.769531-1.4765628-137.671874 58.3671872-138.652343 134.1406252-.671875 52.085937 27.949219 97.542969 70.429687 120.953125l40.5625 228.851562c2.875 16.210938 16.96875 28.027344 33.433594 28.027344h5.269531c17.929688 0 32.769531-13.941406 33.886719-31.835938l6.625-105.890624c1.117188-17.894532 15.957031-31.832032 33.886719-31.832032v-309.996094c-23.097657-19.6875-52.863281-31.785156-85.441407-32.4179682zm0 0" fill="#fff5f5"/></svg>