<svg height="512pt" viewBox="0 0 512 512.00002" width="512pt" xmlns="http://www.w3.org/2000/svg"><path d="m512 184.703125h-256l-20.015625 155.136719 20.015625 172.160156h256zm0 0" fill="#ffa7b3"/><path d="m0 184.703125h256v327.296875h-256zm0 0" fill="#ffcdbe"/><path d="m290.941406 0h-34.941406l-20.015625 129.671875 20.015625 274.015625c24.804688 0 45.976562-17.929688 50.066406-42.398438l29.492188-176.582031c31.539062-16.214843 53.113281-49.074219 53.113281-86.972656 0-53.976563-43.757813-97.734375-97.730469-97.734375zm0 0" fill="#e1ebf0"/><path d="m221.058594 0c-53.976563 0-97.730469 43.757812-97.730469 97.730469 0 37.902343 21.574219 70.761719 53.113281 86.972656l29.492188 176.585937c4.089844 24.464844 25.261718 42.394532 50.066406 42.394532v-403.683594zm0 0" fill="#fff5f5"/></svg>