<svg height="511pt" viewBox="-38 0 511 511.99992" width="511pt" xmlns="http://www.w3.org/2000/svg"><path d="m254.003906 247.648438-55.980468-20.015626 20.019531 269.367188h35.960937zm0 0" fill="#87a0af"/><g fill="#b4d2d7"><path d="m182.078125 247.648438v249.351562h35.964844v-269.367188zm0 0"/><path d="m347.035156 388.164062v-30h-128.992187l-10.007813 15 10.007813 15zm0 0"/><path d="m372.832031 326.25v-30h-154.789062l-10.007813 15 10.007813 15zm0 0"/><path d="m321.234375 450.082031v-30h-103.191406l-10.007813 15 10.007813 15zm0 0"/><path d="m295.4375 512v-30h-77.394531l-10.007813 15 10.007813 15zm0 0"/></g><path d="m140.644531 482h77.398438v30h-77.398438zm0 0" fill="#e1ebf0"/><path d="m114.847656 420.082031h103.195313v30h-103.195313zm0 0" fill="#e1ebf0"/><path d="m89.046875 358.164062h128.996094v30h-128.996094zm0 0" fill="#e1ebf0"/><path d="m63.25 296.25h154.792969v30h-154.792969zm0 0" fill="#e1ebf0"/><path d="m435.570312 130.238281c-.949218-73.554687-61.042968-131.644531-134.589843-130.2109372-31.621094.6132812-60.515625 12.3593752-82.9375 31.4687502l-20.019531 109.003906 20.019531 107.148438h149.164062c41.234375-22.722657 69.015625-66.847657 68.363281-117.410157zm0 0" fill="#e1ebf0"/><path d="m135.101562.0273438c-73.546874-1.4335938-133.640624 56.6562502-134.589843 130.2109372-.652344 50.5625 27.128906 94.6875 68.363281 117.410157h149.167969v-216.152344c-22.425781-19.109375-51.316407-30.855469-82.941407-31.4687502zm0 0" fill="#fff5f5"/></svg>