<svg height="512pt" viewBox="0 0 512 512" width="512pt" xmlns="http://www.w3.org/2000/svg"><path d="m341.441406.0273438c-32.578125.6328122-62.34375 12.7304682-85.441406 32.4179682l-20.015625 130.550782 20.015625 179.433594c17.929688 0 32.765625 13.9375 33.886719 31.832031l6.621093 105.886719c1.121094 17.894531 15.960938 31.832031 33.886719 31.832031h5.269531c16.464844 0 30.558594-11.8125 33.433594-28.027344l40.5625-228.839844c42.476563-23.410156 71.101563-68.863281 70.425782-120.949219-.976563-75.773437-62.882813-135.613281-138.644532-134.1367182zm0 0" fill="#e1ebf0"/><path d="m170.558594.0273438c-75.761719-1.4765628-137.667969 58.3632812-138.644532 134.1367182-.675781 52.085938 27.949219 97.539063 70.425782 120.949219l40.5625 228.84375c2.875 16.210938 16.96875 28.027344 33.433594 28.027344h5.269531c17.925781 0 32.765625-13.941406 33.886719-31.835937l6.621093-105.886719c1.117188-17.890625 15.957031-31.832031 33.886719-31.832031v-309.984376c-23.097656-19.6875-52.863281-31.785156-85.441406-32.4179682zm0 0" fill="#fff5f5"/><path d="m409.660156 240.113281c-35.929687 0-53.976562-9.171875-73.082031-18.882812-20.386719-10.359375-41.464844-21.070313-80.578125-21.070313l-10.007812 14.832032 10.007812 15.164062c31.929688 0 48.175781 8.257812 66.984375 17.816406 20.417969 10.378906 43.5625 22.140625 86.675781 22.140625 47.605469 0 73.976563 68.589844 74.238282 69.28125l28.101562-10.5c-1.351562-3.625-33.878906-88.78125-102.339844-88.78125zm0 0" fill="#b4d2d7"/><path d="m175.421875 221.230469c-19.105469 9.710937-37.152344 18.882812-73.082031 18.882812-68.460938 0-100.988282 85.15625-102.339844 88.78125l28.101562 10.5c.261719-.691406 26.632813-69.28125 74.238282-69.28125 43.113281 0 66.257812-11.761719 86.675781-22.140625 18.8125-9.558594 35.054687-17.816406 66.984375-17.816406v-29.996094c-39.113281 0-60.191406 10.710938-80.578125 21.070313zm0 0" fill="#e1ebf0"/></svg>