<svg height="511pt" viewBox="-31 0 511 511.99973" width="511pt" xmlns="http://www.w3.org/2000/svg"><path d="m204.589844 123.792969 20.015625 218.648437c17.929687 0 32.769531 13.9375 33.890625 31.832032l6.621094 105.890624c1.121093 17.894532 15.960937 31.835938 33.886718 31.835938h5.269532c16.46875 0 30.558593-11.8125 33.433593-28.027344l40.566407-228.851562c37.484374-20.65625 64.164062-58.488282 69.460937-102.886719-22.128906-39.902344-139.460937-59.234375-243.144531-28.441406zm0 0" fill="#e1ebf0"/><path d="m1.570312 153.070312c5.527344 44.039063 32.117188 81.523438 69.367188 102.050782l40.566406 228.851562c2.875 16.210938 16.96875 28.027344 33.433594 28.027344h5.269531c17.929688 0 32.769531-13.941406 33.886719-31.835938l6.625-105.890624c1.121094-17.894532 15.957031-31.832032 33.886719-31.832032v-218.648437c-91.667969-32.792969-187.667969-15.1875-223.035157 29.277343zm0 0" fill="#fff5f5"/><path d="m310.050781.0273438c-32.578125.6328122-62.34375 12.7304682-85.445312 32.4179682l-20.015625 43.777344 20.015625 85.539063c12.976562-6.46875 21.554687-15.519531 45.546875-15.519531 37.320312 0 37.320312 21.90625 74.640625 21.90625 37.320312 0 37.320312-21.90625 74.644531-21.90625 12.832031 0 21.253906 2.59375 28.296875 5.992187.707031-5.914063 1.046875-11.941406.96875-18.066406-.980469-75.773438-62.886719-135.617188-138.652344-134.1406252zm0 0" fill="#9b9696"/><path d="m139.164062.0273438c-75.769531-1.4765628-137.671874 58.3671872-138.652343 134.1406252-.082031 6.410156.28125 12.722656 1.058593 18.902343 12.5 6.425782 21.214844 15.078126 44.671876 15.078126 37.316406 0 37.316406-21.90625 74.636718-21.90625 37.316406 0 37.316406 21.90625 74.632813 21.90625 13.328125 0 21.886719-2.796876 29.09375-6.386719v-129.316407c-23.097657-19.6875-52.863281-31.785156-85.441407-32.4179682zm0 0" fill="#cdbfba"/></svg>