<svg height="512pt" viewBox="-29 0 511 512" width="512pt" xmlns="http://www.w3.org/2000/svg"><path d="m344.863281 0h-117.609375l-20.019531 217.667969 20.019531 294.332031c136.425782-51.363281 226.75-181.882812 226.75-327.65625v-75.203125zm0 0" fill="#00b6bd"/><path d="m109.640625 0-109.140625 109.140625v75.203125c0 145.773438 90.324219 276.292969 226.753906 327.65625v-512zm0 0" fill="#00eed1"/><path d="m322.550781 53.867188h-95.296875l-20.019531 148.464843 20.019531 251.398438 4.300782-2.046875c46.445312-22.125 86.539062-56.277344 115.9375-98.761719 34.441406-49.765625 52.644531-108.058594 52.644531-168.578125v-52.890625zm0 0" fill="#04303e"/><path d="m131.953125 53.867188-77.585937 77.585937v52.890625c0 60.523438 18.203124 118.816406 52.644531 168.578125 29.398437 42.484375 69.492187 76.636719 115.9375 98.761719l4.304687 2.046875v-399.863281zm0 0" fill="#09607d"/><path d="m246.734375 139.789062h-19.480469l-20.019531 66.539063 20.019531 134.839844c15.578125 0 28.910156-11.179688 31.628906-26.519531l12.730469-71.871094c17.585938-9.039063 29.613281-27.363282 29.613281-48.496094.003907-30.09375-24.394531-54.492188-54.492187-54.492188zm0 0" fill="#e1ebf0"/><path d="m207.769531 139.789062c-30.097656 0-54.496093 24.398438-54.496093 54.492188 0 21.132812 12.03125 39.457031 29.617187 48.496094l12.730469 71.871094c2.71875 15.339843 16.050781 26.519531 31.628906 26.519531v-201.378907zm0 0" fill="#fff5f5"/></svg>