<svg height="512pt" viewBox="0 -55 512 511" width="512pt" xmlns="http://www.w3.org/2000/svg"><path d="m256 .5-20.015625 200.339844 20.015625 200.339844c166.0625 0 256-42.527344 256-42.527344v-315.628906s-89.9375-42.523438-256-42.523438zm0 0" fill="#ffa7b3"/><path d="m0 43.023438v315.632812s89.9375 42.523438 256 42.523438v-400.679688c-166.0625 0-256 42.523438-256 42.523438zm0 0" fill="#ffcdbe"/><path d="m464.917969 289.039062c25.78125 0 46.753906-20.972656 46.753906-46.753906v-41.445312l-104.246094-20.015625 20.015625 89.378906c8.53125 11.425781 22.15625 18.835937 37.476563 18.835937zm0 0" fill="#cde1e6"/><path d="m381.222656 309.894531c23.375 0 42.800782-17.25 46.21875-39.6875v-69.367187l-103.566406-20.015625 20.015625 110.324219c8.601563 11.386718 22.253906 18.746093 37.332031 18.746093zm0 0" fill="#e1ebf0"/><path d="m297.683594 330.746094c23.347656 0 42.753906-17.199219 46.207031-39.597656v-90.308594l-108.070313-20.015625 20.015626 123.980469c7.671874 15.363281 23.542968 25.941406 41.847656 25.941406zm0 0" fill="#cde1e6"/><path d="m213.988281 330.746094c18.304688 0 34.175781-10.578125 41.847657-25.941406v-103.964844l-108.070313-20.015625 20.015625 110.328125c3.453125 22.394531 22.859375 39.59375 46.207031 39.59375zm0 0" fill="#e1ebf0"/><path d="m130.449219 309.894531c15.078125 0 28.730469-7.359375 37.332031-18.742187v-90.3125l-103.566406-20.015625 20.015625 89.378906c3.417969 22.441406 22.839843 39.691406 46.21875 39.691406zm0 0" fill="#cde1e6"/><path d="m0 242.285156c0 25.78125 20.972656 46.753906 46.753906 46.753906 15.320313 0 28.945313-7.410156 37.476563-18.832031v-89.382812l-84.230469 20.015625zm0 0" fill="#e1ebf0"/><path d="m511.671875 159.390625c0-25.777344-20.972656-46.753906-46.753906-46.753906-15.324219 0-28.945313 7.410156-37.480469 18.835937l-20.015625 33.867188 20.019531 35.5h84.230469zm0 0" fill="#e1ebf0"/><path d="m381.222656 91.785156c-15.078125 0-28.730468 7.355469-37.332031 18.742188l-20.015625 51.8125 20.015625 38.5h83.550781v-69.367188c-3.417968-22.441406-22.84375-39.6875-46.21875-39.6875zm0 0" fill="#fff5f5"/><path d="m297.683594 70.929688c-18.304688 0-34.175782 10.582031-41.847656 25.941406l-20.015626 63.46875 20.015626 40.5h88.054687v-90.3125c-3.457031-22.394532-22.859375-39.597656-46.207031-39.597656zm0 0" fill="#e1ebf0"/><path d="m213.988281 70.929688c-23.347656 0-42.753906 17.203124-46.207031 39.597656l-20.015625 49.3125 20.015625 41h88.054688v-103.96875c-7.671876-15.359375-23.542969-25.941406-41.847657-25.941406zm0 0" fill="#fff5f5"/><path d="m130.449219 91.785156c-23.375 0-42.800781 17.246094-46.21875 39.6875l-20.015625 39.867188 20.015625 29.5h83.550781v-90.3125c-8.601562-11.386719-22.253906-18.742188-37.332031-18.742188zm0 0" fill="#e1ebf0"/><path d="m46.753906 112.636719c-25.78125 0-46.753906 20.976562-46.753906 46.753906v41.449219h84.230469v-69.367188c-8.53125-11.425781-22.15625-18.835937-37.476563-18.835937zm0 0" fill="#fff5f5"/></svg>