<svg height="512pt" viewBox="-89 0 512 512" width="512pt" xmlns="http://www.w3.org/2000/svg"><path d="m322.164062 297.550781c-5.679687-32.554687-102.347656-62.59375-175.363281-28.699219l20.015625 243.148438h137.535156zm0 0" fill="#00b6bd"/><path d="m10.03125 280.257812 19.246094 231.742188h137.539062v-243.144531c-59.667968-18.527344-135.671875-9.195313-156.785156 11.402343zm0 0" fill="#00eed1"/><path d="m68.777344 72.238281h30.960937v30h-30.960937zm0 0" fill="#bbfff7"/><path d="m151.335938 72.238281h30.960937v30h-30.960937zm0 0" fill="#bbfff7"/><path d="m233.894531 72.238281h30.957031v30h-30.957031zm0 0" fill="#00eed1"/><path d="m192.617188 0h30.957031v30h-30.957031zm0 0" fill="#00eed1"/><path d="m110.058594 0h30.957031v30h-30.957031zm0 0" fill="#bbfff7"/><path d="m166.816406 159.476562-20.015625 64.851563 20.015625 64.757813c16.210938-6.28125 32.417969-12.5625 64.84375-12.5625 48.265625 0 60.59375 13.917968 90.503906 21.027343l11.46875-138.074219zm0 0" fill="#e1ebf0"/><path d="m0 159.476562 10.03125 120.78125c31 6.992188 42.933594 21.367188 91.988281 21.367188 32.394531 0 48.597657-6.269531 64.796875-12.542969v-129.605469zm0 0" fill="#fff5f5"/></svg>