<svg height="512pt" viewBox="0 -164 512 512" width="512pt" xmlns="http://www.w3.org/2000/svg"><path d="m421.941406 0c-28.96875 0-52.539062 23.566406-52.539062 52.535156v101.855469h105.074218v-101.855469c0-28.96875-23.570312-52.535156-52.535156-52.535156zm0 0" fill="#fff5f5"/><path d="m316.453125 0c-26.316406 0-49.171875 15.046875-60.453125 36.980469l-20.015625 91.226562 20.015625 56.207031h128.402344v-116.460937c0-37.46875-30.480469-67.953125-67.949219-67.953125zm0 0" fill="#e1ebf0"/><path d="m90.058594 0c-28.964844 0-52.535156 23.566406-52.535156 52.535156v101.855469h105.074218v-101.855469c0-28.96875-23.570312-52.535156-52.539062-52.535156zm0 0" fill="#e1ebf0"/><path d="m195.546875 0c-37.46875 0-67.949219 30.484375-67.949219 67.953125v116.460937h128.402344v-147.433593c-11.28125-21.933594-34.136719-36.980469-60.453125-36.980469zm0 0" fill="#fff5f5"/><path d="m512 72.203125h-256l-10.007812 15 10.007812 15h256zm0 0" fill="#9bb9c3"/><path d="m0 72.203125h256v30h-256zm0 0" fill="#cde1e6"/></svg>