<svg height="512.00025pt" viewBox="0 0 512.00025 512.00025" width="512.00025pt" xmlns="http://www.w3.org/2000/svg"><path d="m226.753906 264.03125 135.359375-135.359375 21.210938 21.214844-135.359375 135.359375zm0 0" fill="#b4d2d7"/><path d="m348.769531 163.230469c37.292969 37.289062 97.96875 37.289062 135.261719 0 37.292969-37.292969 37.292969-97.96875 0-135.261719l-89.03125 39.53125zm0 0" fill="#b4d2d7"/><path d="m484.03125 27.96875c-37.292969-37.292969-97.96875-37.292969-135.261719 0-37.289062 37.292969-37.289062 97.96875 0 135.257812zm0 0" fill="#e1ebf0"/><path d="m370.039062 141.960938c11.875 11.878906 28.277344 19.234374 46.363282 19.234374 36.171875 0 65.597656-29.425781 65.597656-65.597656 0-18.085937-7.355469-34.484375-19.234375-46.363281l-66.265625 25.765625zm0 0" fill="#e1ebf0"/><path d="m416.402344 30c-36.171875 0-65.601563 29.425781-65.601563 65.597656 0 18.085938 7.359375 34.488282 19.234375 46.367188l92.730469-92.730469c-11.878906-11.878906-28.277344-19.234375-46.363281-19.234375zm0 0" fill="#fff5f5"/><path d="m15.1875 496.8125c20.246094 20.25 53.074219 20.25 73.324219 0l231.363281-231.363281-36.660156-36.664063-144.714844 99.214844zm0 0" fill="#09607d"/><path d="m15.1875 423.488281c-20.25 20.246094-20.25 53.078125 0 73.324219l268.027344-268.027344-36.664063-36.664062zm0 0" fill="#0d91bd"/></svg>